<?xml version="1.0" encoding="UTF-8" standalone="no"?>
<!DOCTYPE svg PUBLIC "-//W3C//DTD SVG 1.1//EN"
 "http://www.w3.org/Graphics/SVG/1.1/DTD/svg11.dtd">
<!-- Generated by graphviz version 13.1.0 (20250701.0955)
 -->
<!-- Title: interface/driver_ld3320_interface.h Pages: 1 -->
<svg width="719pt" height="176pt"
 viewBox="0.00 0.00 719.00 176.00" xmlns="http://www.w3.org/2000/svg" xmlns:xlink="http://www.w3.org/1999/xlink">
<g id="graph0" class="graph" transform="scale(1 1) rotate(0) translate(4 172)">
<title>interface/driver_ld3320_interface.h</title>
<!-- Node1 -->
<g id="Node000001" class="node">
<title>Node1</title>
<g id="a_Node000001"><a xlink:title="driver ld3320 interface header file">
<polygon fill="#999999" stroke="#666666" points="438.88,-168 324.62,-168 324.62,-136 438.88,-136 438.88,-168"/>
<text xml:space="preserve" text-anchor="start" x="332.62" y="-154.5" font-family="Helvetica,sans-Serif" font-size="10.00">interface/driver_ld3320</text>
<text xml:space="preserve" text-anchor="middle" x="381.75" y="-142.5" font-family="Helvetica,sans-Serif" font-size="10.00">_interface.h</text>
</a>
</g>
</g>
<!-- Node2 -->
<g id="Node000002" class="node">
<title>Node2</title>
<g id="a_Node000002"><a xlink:href="driver__ld3320__asr_8h.html" target="_top" xlink:title="driver ld3320 asr header file">
<polygon fill="white" stroke="#666666" points="113.5,-100 0,-100 0,-68 113.5,-68 113.5,-100"/>
<text xml:space="preserve" text-anchor="start" x="8" y="-86.5" font-family="Helvetica,sans-Serif" font-size="10.00">example/driver_ld3320</text>
<text xml:space="preserve" text-anchor="middle" x="56.75" y="-74.5" font-family="Helvetica,sans-Serif" font-size="10.00">_asr.h</text>
</a>
</g>
</g>
<!-- Node1&#45;&gt;Node2 -->
<g id="edge1_Node000001_Node000002" class="edge">
<title>Node1&#45;&gt;Node2</title>
<g id="a_edge1_Node000001_Node000002"><a xlink:title=" ">
<path fill="none" stroke="#63b8ff" d="M313.15,-138.06C260.89,-128.06 187.18,-113.66 122.75,-100 119.88,-99.39 116.93,-98.76 113.97,-98.11"/>
<polygon fill="#63b8ff" stroke="#63b8ff" points="312.34,-141.46 322.81,-139.9 313.65,-134.59 312.34,-141.46"/>
</a>
</g>
</g>
<!-- Node4 -->
<g id="Node000004" class="node">
<title>Node4</title>
<g id="a_Node000004"><a xlink:href="driver__ld3320__mp3_8h.html" target="_top" xlink:title="driver ld3320 mp3 header file">
<polygon fill="white" stroke="#666666" points="245.5,-100 132,-100 132,-68 245.5,-68 245.5,-100"/>
<text xml:space="preserve" text-anchor="start" x="140" y="-86.5" font-family="Helvetica,sans-Serif" font-size="10.00">example/driver_ld3320</text>
<text xml:space="preserve" text-anchor="middle" x="188.75" y="-74.5" font-family="Helvetica,sans-Serif" font-size="10.00">_mp3.h</text>
</a>
</g>
</g>
<!-- Node1&#45;&gt;Node4 -->
<g id="edge3_Node000001_Node000004" class="edge">
<title>Node1&#45;&gt;Node4</title>
<g id="a_edge3_Node000001_Node000004"><a xlink:title=" ">
<path fill="none" stroke="#63b8ff" d="M325.66,-131.82C296.54,-121.86 261.43,-109.85 234.05,-100.49"/>
<polygon fill="#63b8ff" stroke="#63b8ff" points="324.47,-135.11 335.07,-135.04 326.74,-128.49 324.47,-135.11"/>
</a>
</g>
</g>
<!-- Node6 -->
<g id="Node000006" class="node">
<title>Node6</title>
<g id="a_Node000006"><a xlink:href="driver__ld3320__interface__template_8c.html" target="_top" xlink:title="driver ld3320 interface template source file">
<polygon fill="white" stroke="#666666" points="377.88,-100 263.62,-100 263.62,-68 377.88,-68 377.88,-100"/>
<text xml:space="preserve" text-anchor="start" x="271.62" y="-86.5" font-family="Helvetica,sans-Serif" font-size="10.00">interface/driver_ld3320</text>
<text xml:space="preserve" text-anchor="middle" x="320.75" y="-74.5" font-family="Helvetica,sans-Serif" font-size="10.00">_interface_template.c</text>
</a>
</g>
</g>
<!-- Node1&#45;&gt;Node6 -->
<g id="edge5_Node000001_Node000006" class="edge">
<title>Node1&#45;&gt;Node6</title>
<g id="a_edge5_Node000001_Node000006"><a xlink:title=" ">
<path fill="none" stroke="#63b8ff" d="M359.97,-127.43C351.6,-118.38 342.28,-108.29 334.82,-100.22"/>
<polygon fill="#63b8ff" stroke="#63b8ff" points="357.22,-129.61 366.57,-134.58 362.36,-124.86 357.22,-129.61"/>
</a>
</g>
</g>
<!-- Node7 -->
<g id="Node000007" class="node">
<title>Node7</title>
<g id="a_Node000007"><a xlink:href="driver__ld3320__asr__test_8h.html" target="_top" xlink:title="driver ld3320 asr test header file">
<polygon fill="white" stroke="#666666" points="489.38,-100 396.12,-100 396.12,-68 489.38,-68 489.38,-100"/>
<text xml:space="preserve" text-anchor="start" x="404.12" y="-86.5" font-family="Helvetica,sans-Serif" font-size="10.00">test/driver_ld3320</text>
<text xml:space="preserve" text-anchor="middle" x="442.75" y="-74.5" font-family="Helvetica,sans-Serif" font-size="10.00">_asr_test.h</text>
</a>
</g>
</g>
<!-- Node1&#45;&gt;Node7 -->
<g id="edge6_Node000001_Node000007" class="edge">
<title>Node1&#45;&gt;Node7</title>
<g id="a_edge6_Node000001_Node000007"><a xlink:title=" ">
<path fill="none" stroke="#63b8ff" d="M403.53,-127.43C411.9,-118.38 421.22,-108.29 428.68,-100.22"/>
<polygon fill="#63b8ff" stroke="#63b8ff" points="401.14,-124.86 396.93,-134.58 406.28,-129.61 401.14,-124.86"/>
</a>
</g>
</g>
<!-- Node9 -->
<g id="Node000009" class="node">
<title>Node9</title>
<g id="a_Node000009"><a xlink:href="driver__ld3320__mp3__test_8h.html" target="_top" xlink:title="driver ld3320 mp3 test header file">
<polygon fill="white" stroke="#666666" points="600.38,-100 507.12,-100 507.12,-68 600.38,-68 600.38,-100"/>
<text xml:space="preserve" text-anchor="start" x="515.12" y="-86.5" font-family="Helvetica,sans-Serif" font-size="10.00">test/driver_ld3320</text>
<text xml:space="preserve" text-anchor="middle" x="553.75" y="-74.5" font-family="Helvetica,sans-Serif" font-size="10.00">_mp3_test.h</text>
</a>
</g>
</g>
<!-- Node1&#45;&gt;Node9 -->
<g id="edge8_Node000001_Node000009" class="edge">
<title>Node1&#45;&gt;Node9</title>
<g id="a_edge8_Node000001_Node000009"><a xlink:title=" ">
<path fill="none" stroke="#63b8ff" d="M432.77,-131.42C458.51,-121.54 489.3,-109.73 513.38,-100.49"/>
<polygon fill="#63b8ff" stroke="#63b8ff" points="431.57,-128.13 423.49,-134.98 434.08,-134.67 431.57,-128.13"/>
</a>
</g>
</g>
<!-- Node11 -->
<g id="Node000011" class="node">
<title>Node11</title>
<g id="a_Node000011"><a xlink:href="driver__ld3320__register__test_8h.html" target="_top" xlink:title="driver ld3320 register test header file">
<polygon fill="white" stroke="#666666" points="711.38,-100 618.12,-100 618.12,-68 711.38,-68 711.38,-100"/>
<text xml:space="preserve" text-anchor="start" x="626.12" y="-86.5" font-family="Helvetica,sans-Serif" font-size="10.00">test/driver_ld3320</text>
<text xml:space="preserve" text-anchor="middle" x="664.75" y="-74.5" font-family="Helvetica,sans-Serif" font-size="10.00">_register_test.h</text>
</a>
</g>
</g>
<!-- Node1&#45;&gt;Node11 -->
<g id="edge10_Node000001_Node000011" class="edge">
<title>Node1&#45;&gt;Node11</title>
<g id="a_edge10_Node000001_Node000011"><a xlink:title=" ">
<path fill="none" stroke="#63b8ff" d="M450.27,-136.54C495.64,-126.75 556.4,-113.23 609.75,-100 612.34,-99.36 615,-98.68 617.68,-97.99"/>
<polygon fill="#63b8ff" stroke="#63b8ff" points="449.6,-133.1 440.56,-138.63 451.07,-139.95 449.6,-133.1"/>
</a>
</g>
</g>
<!-- Node3 -->
<g id="Node000003" class="node">
<title>Node3</title>
<g id="a_Node000003"><a xlink:href="driver__ld3320__asr_8c.html" target="_top" xlink:title="driver ld3320 asr source file">
<polygon fill="white" stroke="#666666" points="113.5,-32 0,-32 0,0 113.5,0 113.5,-32"/>
<text xml:space="preserve" text-anchor="start" x="8" y="-18.5" font-family="Helvetica,sans-Serif" font-size="10.00">example/driver_ld3320</text>
<text xml:space="preserve" text-anchor="middle" x="56.75" y="-6.5" font-family="Helvetica,sans-Serif" font-size="10.00">_asr.c</text>
</a>
</g>
</g>
<!-- Node2&#45;&gt;Node3 -->
<g id="edge2_Node000002_Node000003" class="edge">
<title>Node2&#45;&gt;Node3</title>
<g id="a_edge2_Node000002_Node000003"><a xlink:title=" ">
<path fill="none" stroke="#63b8ff" d="M56.75,-56.31C56.75,-48.12 56.75,-39.38 56.75,-32.22"/>
<polygon fill="#63b8ff" stroke="#63b8ff" points="53.25,-56.18 56.75,-66.18 60.25,-56.18 53.25,-56.18"/>
</a>
</g>
</g>
<!-- Node5 -->
<g id="Node000005" class="node">
<title>Node5</title>
<g id="a_Node000005"><a xlink:href="driver__ld3320__mp3_8c.html" target="_top" xlink:title="driver ld3320 mp3 source file">
<polygon fill="white" stroke="#666666" points="245.5,-32 132,-32 132,0 245.5,0 245.5,-32"/>
<text xml:space="preserve" text-anchor="start" x="140" y="-18.5" font-family="Helvetica,sans-Serif" font-size="10.00">example/driver_ld3320</text>
<text xml:space="preserve" text-anchor="middle" x="188.75" y="-6.5" font-family="Helvetica,sans-Serif" font-size="10.00">_mp3.c</text>
</a>
</g>
</g>
<!-- Node4&#45;&gt;Node5 -->
<g id="edge4_Node000004_Node000005" class="edge">
<title>Node4&#45;&gt;Node5</title>
<g id="a_edge4_Node000004_Node000005"><a xlink:title=" ">
<path fill="none" stroke="#63b8ff" d="M188.75,-56.31C188.75,-48.12 188.75,-39.38 188.75,-32.22"/>
<polygon fill="#63b8ff" stroke="#63b8ff" points="185.25,-56.18 188.75,-66.18 192.25,-56.18 185.25,-56.18"/>
</a>
</g>
</g>
<!-- Node8 -->
<g id="Node000008" class="node">
<title>Node8</title>
<g id="a_Node000008"><a xlink:href="driver__ld3320__asr__test_8c.html" target="_top" xlink:title="driver ld3320 asr test source file">
<polygon fill="white" stroke="#666666" points="489.38,-32 396.12,-32 396.12,0 489.38,0 489.38,-32"/>
<text xml:space="preserve" text-anchor="start" x="404.12" y="-18.5" font-family="Helvetica,sans-Serif" font-size="10.00">test/driver_ld3320</text>
<text xml:space="preserve" text-anchor="middle" x="442.75" y="-6.5" font-family="Helvetica,sans-Serif" font-size="10.00">_asr_test.c</text>
</a>
</g>
</g>
<!-- Node7&#45;&gt;Node8 -->
<g id="edge7_Node000007_Node000008" class="edge">
<title>Node7&#45;&gt;Node8</title>
<g id="a_edge7_Node000007_Node000008"><a xlink:title=" ">
<path fill="none" stroke="#63b8ff" d="M442.75,-56.31C442.75,-48.12 442.75,-39.38 442.75,-32.22"/>
<polygon fill="#63b8ff" stroke="#63b8ff" points="439.25,-56.18 442.75,-66.18 446.25,-56.18 439.25,-56.18"/>
</a>
</g>
</g>
<!-- Node10 -->
<g id="Node000010" class="node">
<title>Node10</title>
<g id="a_Node000010"><a xlink:href="driver__ld3320__mp3__test_8c.html" target="_top" xlink:title="driver ld3320 mp3 test source file">
<polygon fill="white" stroke="#666666" points="600.38,-32 507.12,-32 507.12,0 600.38,0 600.38,-32"/>
<text xml:space="preserve" text-anchor="start" x="515.12" y="-18.5" font-family="Helvetica,sans-Serif" font-size="10.00">test/driver_ld3320</text>
<text xml:space="preserve" text-anchor="middle" x="553.75" y="-6.5" font-family="Helvetica,sans-Serif" font-size="10.00">_mp3_test.c</text>
</a>
</g>
</g>
<!-- Node9&#45;&gt;Node10 -->
<g id="edge9_Node000009_Node000010" class="edge">
<title>Node9&#45;&gt;Node10</title>
<g id="a_edge9_Node000009_Node000010"><a xlink:title=" ">
<path fill="none" stroke="#63b8ff" d="M553.75,-56.31C553.75,-48.12 553.75,-39.38 553.75,-32.22"/>
<polygon fill="#63b8ff" stroke="#63b8ff" points="550.25,-56.18 553.75,-66.18 557.25,-56.18 550.25,-56.18"/>
</a>
</g>
</g>
<!-- Node12 -->
<g id="Node000012" class="node">
<title>Node12</title>
<g id="a_Node000012"><a xlink:href="driver__ld3320__register__test_8c.html" target="_top" xlink:title="driver ld3320 register test source file">
<polygon fill="white" stroke="#666666" points="711.38,-32 618.12,-32 618.12,0 711.38,0 711.38,-32"/>
<text xml:space="preserve" text-anchor="start" x="626.12" y="-18.5" font-family="Helvetica,sans-Serif" font-size="10.00">test/driver_ld3320</text>
<text xml:space="preserve" text-anchor="middle" x="664.75" y="-6.5" font-family="Helvetica,sans-Serif" font-size="10.00">_register_test.c</text>
</a>
</g>
</g>
<!-- Node11&#45;&gt;Node12 -->
<g id="edge11_Node000011_Node000012" class="edge">
<title>Node11&#45;&gt;Node12</title>
<g id="a_edge11_Node000011_Node000012"><a xlink:title=" ">
<path fill="none" stroke="#63b8ff" d="M664.75,-56.31C664.75,-48.12 664.75,-39.38 664.75,-32.22"/>
<polygon fill="#63b8ff" stroke="#63b8ff" points="661.25,-56.18 664.75,-66.18 668.25,-56.18 661.25,-56.18"/>
</a>
</g>
</g>
</g>
</svg>
