<?xml version="1.0" encoding="UTF-8" standalone="no"?>
<!DOCTYPE svg PUBLIC "-//W3C//DTD SVG 1.1//EN"
 "http://www.w3.org/Graphics/SVG/1.1/DTD/svg11.dtd">
<!-- Generated by graphviz version 13.1.0 (20250701.0955)
 -->
<!-- Title: ld3320_mp3_start Pages: 1 -->
<svg width="240pt" height="128pt"
 viewBox="0.00 0.00 240.00 128.00" xmlns="http://www.w3.org/2000/svg" xmlns:xlink="http://www.w3.org/1999/xlink">
<g id="graph0" class="graph" transform="scale(1 1) rotate(0) translate(4 124)">
<title>ld3320_mp3_start</title>
<!-- Node1 -->
<g id="Node000001" class="node">
<title>Node1</title>
<g id="a_Node000001"><a xlink:title="mp3 example start">
<polygon fill="#999999" stroke="#666666" points="93.25,-64 0,-64 0,-44 93.25,-44 93.25,-64"/>
<text xml:space="preserve" text-anchor="middle" x="46.62" y="-50.5" font-family="Helvetica,sans-Serif" font-size="10.00">ld3320_mp3_start</text>
</a>
</g>
</g>
<!-- Node2 -->
<g id="Node000002" class="node">
<title>Node2</title>
<g id="a_Node000002"><a xlink:href="group__ld3320__basic__driver.html#ga98e81d189586cb8038e3df4f54fd4d99" target="_top" xlink:title="set the headset volume">
<polygon fill="white" stroke="#666666" points="232.25,-120 129.25,-120 129.25,-88 232.25,-88 232.25,-120"/>
<text xml:space="preserve" text-anchor="start" x="137.25" y="-106.5" font-family="Helvetica,sans-Serif" font-size="10.00">ld3320_set_headset</text>
<text xml:space="preserve" text-anchor="middle" x="180.75" y="-94.5" font-family="Helvetica,sans-Serif" font-size="10.00">_volume</text>
</a>
</g>
</g>
<!-- Node1&#45;&gt;Node2 -->
<g id="edge1_Node000001_Node000002" class="edge">
<title>Node1&#45;&gt;Node2</title>
<g id="a_edge1_Node000001_Node000002"><a xlink:title=" ">
<path fill="none" stroke="#63b8ff" d="M75.32,-64.48C89.92,-70.01 108.35,-76.98 125.65,-83.53"/>
<polygon fill="#63b8ff" stroke="#63b8ff" points="124.22,-86.73 134.81,-86.99 126.7,-80.18 124.22,-86.73"/>
</a>
</g>
</g>
<!-- Node3 -->
<g id="Node000003" class="node">
<title>Node3</title>
<g id="a_Node000003"><a xlink:href="group__ld3320__basic__driver.html#gaed86c0138f487a62c39391bdee35812d" target="_top" xlink:title="set the speaker volume">
<polygon fill="white" stroke="#666666" points="232.25,-70 129.25,-70 129.25,-38 232.25,-38 232.25,-70"/>
<text xml:space="preserve" text-anchor="start" x="137.25" y="-56.5" font-family="Helvetica,sans-Serif" font-size="10.00">ld3320_set_speaker</text>
<text xml:space="preserve" text-anchor="middle" x="180.75" y="-44.5" font-family="Helvetica,sans-Serif" font-size="10.00">_volume</text>
</a>
</g>
</g>
<!-- Node1&#45;&gt;Node3 -->
<g id="edge2_Node000001_Node000003" class="edge">
<title>Node1&#45;&gt;Node3</title>
<g id="a_edge2_Node000001_Node000003"><a xlink:title=" ">
<path fill="none" stroke="#63b8ff" d="M93.47,-54C101.27,-54 109.48,-54 117.62,-54"/>
<polygon fill="#63b8ff" stroke="#63b8ff" points="117.51,-57.5 127.51,-54 117.51,-50.5 117.51,-57.5"/>
</a>
</g>
</g>
<!-- Node4 -->
<g id="Node000004" class="node">
<title>Node4</title>
<g id="a_Node000004"><a xlink:href="group__ld3320__basic__driver.html#gab50850088350a0bc694bd2bb838e34c7" target="_top" xlink:title="start the process">
<polygon fill="white" stroke="#666666" points="215.38,-20 146.12,-20 146.12,0 215.38,0 215.38,-20"/>
<text xml:space="preserve" text-anchor="middle" x="180.75" y="-6.5" font-family="Helvetica,sans-Serif" font-size="10.00">ld3320_start</text>
</a>
</g>
</g>
<!-- Node1&#45;&gt;Node4 -->
<g id="edge3_Node000001_Node000004" class="edge">
<title>Node1&#45;&gt;Node4</title>
<g id="a_edge3_Node000001_Node000004"><a xlink:title=" ">
<path fill="none" stroke="#63b8ff" d="M78.94,-43.57C96.54,-37.71 118.75,-30.31 137.84,-23.96"/>
<polygon fill="#63b8ff" stroke="#63b8ff" points="138.85,-27.31 147.23,-20.83 136.63,-20.67 138.85,-27.31"/>
</a>
</g>
</g>
</g>
</svg>
