<?xml version="1.0" encoding="UTF-8" standalone="no"?>
<!DOCTYPE svg PUBLIC "-//W3C//DTD SVG 1.1//EN"
 "http://www.w3.org/Graphics/SVG/1.1/DTD/svg11.dtd">
<!-- Generated by graphviz version 13.1.0 (20250701.0955)
 -->
<!-- Title: ld3320_mp3_init Pages: 1 -->
<svg width="266pt" height="732pt"
 viewBox="0.00 0.00 266.00 732.00" xmlns="http://www.w3.org/2000/svg" xmlns:xlink="http://www.w3.org/1999/xlink">
<g id="graph0" class="graph" transform="scale(1 1) rotate(0) translate(4 728)">
<title>ld3320_mp3_init</title>
<!-- Node1 -->
<g id="Node000001" class="node">
<title>Node1</title>
<g id="a_Node000001"><a xlink:title="mp3 example init">
<polygon fill="#999999" stroke="#666666" points="86.5,-396 0,-396 0,-376 86.5,-376 86.5,-396"/>
<text xml:space="preserve" text-anchor="middle" x="43.25" y="-382.5" font-family="Helvetica,sans-Serif" font-size="10.00">ld3320_mp3_init</text>
</a>
</g>
</g>
<!-- Node2 -->
<g id="Node000002" class="node">
<title>Node2</title>
<g id="a_Node000002"><a xlink:href="group__ld3320__basic__driver.html#ga80852a802f739284072be41d0cea6464" target="_top" xlink:title="configure the mp3">
<polygon fill="white" stroke="#666666" points="246.88,-724 133.38,-724 133.38,-704 246.88,-704 246.88,-724"/>
<text xml:space="preserve" text-anchor="middle" x="190.12" y="-710.5" font-family="Helvetica,sans-Serif" font-size="10.00">ld3320_configure_mp3</text>
</a>
</g>
</g>
<!-- Node1&#45;&gt;Node2 -->
<g id="edge1_Node000001_Node000002" class="edge">
<title>Node1&#45;&gt;Node2</title>
<g id="a_edge1_Node000001_Node000002"><a xlink:title=" ">
<path fill="none" stroke="#63b8ff" d="M45.47,-396.21C51.43,-444.57 79.04,-650.23 122.5,-695 123.23,-695.76 123.99,-696.48 124.78,-697.18"/>
<polygon fill="#63b8ff" stroke="#63b8ff" points="122.58,-699.91 132.79,-702.75 126.58,-694.17 122.58,-699.91"/>
</a>
</g>
</g>
<!-- Node3 -->
<g id="Node000003" class="node">
<title>Node3</title>
<g id="a_Node000003"><a xlink:href="group__ld3320__basic__driver.html#ga4debadf343eb46683bd5579d6a662572" target="_top" xlink:title="deinit the chip">
<polygon fill="white" stroke="#666666" points="226.62,-686 153.62,-686 153.62,-666 226.62,-666 226.62,-686"/>
<text xml:space="preserve" text-anchor="middle" x="190.12" y="-672.5" font-family="Helvetica,sans-Serif" font-size="10.00">ld3320_deinit</text>
</a>
</g>
</g>
<!-- Node1&#45;&gt;Node3 -->
<g id="edge2_Node000001_Node000003" class="edge">
<title>Node1&#45;&gt;Node3</title>
<g id="a_edge2_Node000001_Node000003"><a xlink:title=" ">
<path fill="none" stroke="#63b8ff" d="M43.93,-396.33C43.26,-436.13 46.37,-581.12 122.5,-657 127.99,-662.48 134.95,-666.4 142.28,-669.2"/>
<polygon fill="#63b8ff" stroke="#63b8ff" points="141.13,-672.51 151.72,-672.12 143.2,-665.82 141.13,-672.51"/>
</a>
</g>
</g>
<!-- Node4 -->
<g id="Node000004" class="node">
<title>Node4</title>
<g id="a_Node000004"><a xlink:href="group__ld3320__basic__driver.html#ga765da04c865f0549c04452632a2fe1a0" target="_top" xlink:title="initialize the chip">
<polygon fill="white" stroke="#666666" points="221.38,-648 158.88,-648 158.88,-628 221.38,-628 221.38,-648"/>
<text xml:space="preserve" text-anchor="middle" x="190.12" y="-634.5" font-family="Helvetica,sans-Serif" font-size="10.00">ld3320_init</text>
</a>
</g>
</g>
<!-- Node1&#45;&gt;Node4 -->
<g id="edge3_Node000001_Node000004" class="edge">
<title>Node1&#45;&gt;Node4</title>
<g id="a_edge3_Node000001_Node000004"><a xlink:title=" ">
<path fill="none" stroke="#63b8ff" d="M44.48,-396.12C45.87,-432.1 55.53,-555.05 122.5,-619 129.36,-625.55 138.33,-629.87 147.44,-632.71"/>
<polygon fill="#63b8ff" stroke="#63b8ff" points="146.49,-636.08 157.04,-635.12 148.19,-629.29 146.49,-636.08"/>
</a>
</g>
</g>
<!-- Node5 -->
<g id="Node000005" class="node">
<title>Node5</title>
<g id="a_Node000005"><a xlink:href="group__ld3320__interface__driver.html#gafa85984e81420ab0e2defbdcce3ceb1e" target="_top" xlink:title="interface print format data">
<polygon fill="white" stroke="#666666" points="249.5,-610 130.75,-610 130.75,-578 249.5,-578 249.5,-610"/>
<text xml:space="preserve" text-anchor="start" x="138.75" y="-596.5" font-family="Helvetica,sans-Serif" font-size="10.00">ld3320_interface_debug</text>
<text xml:space="preserve" text-anchor="middle" x="190.12" y="-584.5" font-family="Helvetica,sans-Serif" font-size="10.00">_print</text>
</a>
</g>
</g>
<!-- Node1&#45;&gt;Node5 -->
<g id="edge4_Node000001_Node000005" class="edge">
<title>Node1&#45;&gt;Node5</title>
<g id="a_edge4_Node000001_Node000005"><a xlink:title=" ">
<path fill="none" stroke="#63b8ff" d="M45.77,-396.31C50.81,-426.97 69.8,-518.62 122.5,-569 123.24,-569.71 124.01,-570.4 124.79,-571.07"/>
<polygon fill="#63b8ff" stroke="#63b8ff" points="122.45,-573.7 132.62,-576.67 126.52,-568 122.45,-573.7"/>
</a>
</g>
</g>
<!-- Node6 -->
<g id="Node000006" class="node">
<title>Node6</title>
<g id="a_Node000006"><a xlink:href="group__ld3320__interface__driver.html#ga3a554b0dadce085a99d4564509ab773e" target="_top" xlink:title="interface delay ms">
<polygon fill="white" stroke="#666666" points="257.38,-560 122.88,-560 122.88,-540 257.38,-540 257.38,-560"/>
<text xml:space="preserve" text-anchor="middle" x="190.12" y="-546.5" font-family="Helvetica,sans-Serif" font-size="10.00">ld3320_interface_delay_ms</text>
</a>
</g>
</g>
<!-- Node1&#45;&gt;Node6 -->
<g id="edge5_Node000001_Node000006" class="edge">
<title>Node1&#45;&gt;Node6</title>
<g id="a_edge5_Node000001_Node000006"><a xlink:title=" ">
<path fill="none" stroke="#63b8ff" d="M46.78,-396.21C53.89,-422.69 76.56,-494.09 122.5,-531 123.98,-532.19 125.54,-533.31 127.15,-534.35"/>
<polygon fill="#63b8ff" stroke="#63b8ff" points="125.09,-537.22 135.56,-538.9 128.42,-531.06 125.09,-537.22"/>
</a>
</g>
</g>
<!-- Node7 -->
<g id="Node000007" class="node">
<title>Node7</title>
<g id="a_Node000007"><a xlink:href="group__ld3320__interface__driver.html#gaf04c51a9bc6ecea9d44b81fa807950cf" target="_top" xlink:title="interface delay us">
<polygon fill="white" stroke="#666666" points="255.88,-522 124.38,-522 124.38,-502 255.88,-502 255.88,-522"/>
<text xml:space="preserve" text-anchor="middle" x="190.12" y="-508.5" font-family="Helvetica,sans-Serif" font-size="10.00">ld3320_interface_delay_us</text>
</a>
</g>
</g>
<!-- Node1&#45;&gt;Node7 -->
<g id="edge6_Node000001_Node000007" class="edge">
<title>Node1&#45;&gt;Node7</title>
<g id="a_edge6_Node000001_Node000007"><a xlink:title=" ">
<path fill="none" stroke="#63b8ff" d="M48.88,-396.3C59.02,-417.69 85.3,-467.08 122.5,-493 124.43,-494.34 126.45,-495.59 128.54,-496.75"/>
<polygon fill="#63b8ff" stroke="#63b8ff" points="126.81,-499.81 137.35,-500.92 129.81,-493.48 126.81,-499.81"/>
</a>
</g>
</g>
<!-- Node8 -->
<g id="Node000008" class="node">
<title>Node8</title>
<g id="a_Node000008"><a xlink:href="group__ld3320__interface__driver.html#gace15c2d4f2c5736816d0ade5e88c6db8" target="_top" xlink:title="interface mp3 deinit">
<polygon fill="white" stroke="#666666" points="245.75,-484 134.5,-484 134.5,-452 245.75,-452 245.75,-484"/>
<text xml:space="preserve" text-anchor="start" x="142.5" y="-470.5" font-family="Helvetica,sans-Serif" font-size="10.00">ld3320_interface_mp3</text>
<text xml:space="preserve" text-anchor="middle" x="190.12" y="-458.5" font-family="Helvetica,sans-Serif" font-size="10.00">_deinit</text>
</a>
</g>
</g>
<!-- Node1&#45;&gt;Node8 -->
<g id="edge7_Node000001_Node000008" class="edge">
<title>Node1&#45;&gt;Node8</title>
<g id="a_edge7_Node000001_Node000008"><a xlink:title=" ">
<path fill="none" stroke="#63b8ff" d="M56.29,-396.39C71.09,-408.76 97.35,-429.45 122.5,-443 125.02,-444.36 127.63,-445.68 130.3,-446.95"/>
<polygon fill="#63b8ff" stroke="#63b8ff" points="128.82,-450.12 139.38,-451.01 131.68,-443.73 128.82,-450.12"/>
</a>
</g>
</g>
<!-- Node9 -->
<g id="Node000009" class="node">
<title>Node9</title>
<g id="a_Node000009"><a xlink:href="group__ld3320__interface__driver.html#gad77a481089ccde5c82ec25651936de32" target="_top" xlink:title="interface mp3 init">
<polygon fill="white" stroke="#666666" points="254.75,-434 125.5,-434 125.5,-414 254.75,-414 254.75,-434"/>
<text xml:space="preserve" text-anchor="middle" x="190.12" y="-420.5" font-family="Helvetica,sans-Serif" font-size="10.00">ld3320_interface_mp3_init</text>
</a>
</g>
</g>
<!-- Node1&#45;&gt;Node9 -->
<g id="edge8_Node000001_Node000009" class="edge">
<title>Node1&#45;&gt;Node9</title>
<g id="a_edge8_Node000001_Node000009"><a xlink:title=" ">
<path fill="none" stroke="#63b8ff" d="M84.22,-396.48C100.93,-400.87 120.54,-406.01 138.25,-410.66"/>
<polygon fill="#63b8ff" stroke="#63b8ff" points="137.26,-414.01 147.82,-413.17 139.04,-407.24 137.26,-414.01"/>
</a>
</g>
</g>
<!-- Node10 -->
<g id="Node000010" class="node">
<title>Node10</title>
<g id="a_Node000010"><a xlink:href="group__ld3320__interface__driver.html#ga1209646409d8ab2212dcb5c6a6bea841" target="_top" xlink:title="interface mp3 read">
<polygon fill="white" stroke="#666666" points="257.75,-396 122.5,-396 122.5,-376 257.75,-376 257.75,-396"/>
<text xml:space="preserve" text-anchor="middle" x="190.12" y="-382.5" font-family="Helvetica,sans-Serif" font-size="10.00">ld3320_interface_mp3_read</text>
</a>
</g>
</g>
<!-- Node1&#45;&gt;Node10 -->
<g id="edge9_Node000001_Node000010" class="edge">
<title>Node1&#45;&gt;Node10</title>
<g id="a_edge9_Node000001_Node000010"><a xlink:title=" ">
<path fill="none" stroke="#63b8ff" d="M86.93,-386C94.42,-386 102.42,-386 110.53,-386"/>
<polygon fill="#63b8ff" stroke="#63b8ff" points="110.5,-389.5 120.5,-386 110.5,-382.5 110.5,-389.5"/>
</a>
</g>
</g>
<!-- Node11 -->
<g id="Node000011" class="node">
<title>Node11</title>
<g id="a_Node000011"><a xlink:href="group__ld3320__interface__driver.html#ga5c2edbb7ff33929bdb0f67cc1839eabd" target="_top" xlink:title="interface reset gpio deinit">
<polygon fill="white" stroke="#666666" points="247.25,-358 133,-358 133,-326 247.25,-326 247.25,-358"/>
<text xml:space="preserve" text-anchor="start" x="141" y="-344.5" font-family="Helvetica,sans-Serif" font-size="10.00">ld3320_interface_reset</text>
<text xml:space="preserve" text-anchor="middle" x="190.12" y="-332.5" font-family="Helvetica,sans-Serif" font-size="10.00">_gpio_deinit</text>
</a>
</g>
</g>
<!-- Node1&#45;&gt;Node11 -->
<g id="edge10_Node000001_Node000011" class="edge">
<title>Node1&#45;&gt;Node11</title>
<g id="a_edge10_Node000001_Node000011"><a xlink:title=" ">
<path fill="none" stroke="#63b8ff" d="M78.58,-375.57C92.25,-371.42 108.44,-366.5 124.16,-361.73"/>
<polygon fill="#63b8ff" stroke="#63b8ff" points="124.93,-365.15 133.48,-358.9 122.9,-358.46 124.93,-365.15"/>
</a>
</g>
</g>
<!-- Node12 -->
<g id="Node000012" class="node">
<title>Node12</title>
<g id="a_Node000012"><a xlink:href="group__ld3320__interface__driver.html#ga2d67877a3e1f2996404c76af734f4a40" target="_top" xlink:title="interface reset gpio init">
<polygon fill="white" stroke="#666666" points="247.25,-308 133,-308 133,-276 247.25,-276 247.25,-308"/>
<text xml:space="preserve" text-anchor="start" x="141" y="-294.5" font-family="Helvetica,sans-Serif" font-size="10.00">ld3320_interface_reset</text>
<text xml:space="preserve" text-anchor="middle" x="190.12" y="-282.5" font-family="Helvetica,sans-Serif" font-size="10.00">_gpio_init</text>
</a>
</g>
</g>
<!-- Node1&#45;&gt;Node12 -->
<g id="edge11_Node000001_Node000012" class="edge">
<title>Node1&#45;&gt;Node12</title>
<g id="a_edge11_Node000001_Node000012"><a xlink:title=" ">
<path fill="none" stroke="#63b8ff" d="M53.45,-375.8C67.22,-361.08 94.55,-333.78 122.5,-317 124.53,-315.78 126.62,-314.61 128.77,-313.48"/>
<polygon fill="#63b8ff" stroke="#63b8ff" points="130.23,-316.66 137.71,-309.15 127.18,-310.36 130.23,-316.66"/>
</a>
</g>
</g>
<!-- Node13 -->
<g id="Node000013" class="node">
<title>Node13</title>
<g id="a_Node000013"><a xlink:href="group__ld3320__interface__driver.html#gab5c412c83d92563eb3a6caffec7b4b5a" target="_top" xlink:title="interface reset gpio write">
<polygon fill="white" stroke="#666666" points="247.25,-258 133,-258 133,-226 247.25,-226 247.25,-258"/>
<text xml:space="preserve" text-anchor="start" x="141" y="-244.5" font-family="Helvetica,sans-Serif" font-size="10.00">ld3320_interface_reset</text>
<text xml:space="preserve" text-anchor="middle" x="190.12" y="-232.5" font-family="Helvetica,sans-Serif" font-size="10.00">_gpio_write</text>
</a>
</g>
</g>
<!-- Node1&#45;&gt;Node13 -->
<g id="edge12_Node000001_Node000013" class="edge">
<title>Node1&#45;&gt;Node13</title>
<g id="a_edge12_Node000001_Node000013"><a xlink:title=" ">
<path fill="none" stroke="#63b8ff" d="M48.3,-375.84C57.84,-353.14 83.86,-297.87 122.5,-267 123.64,-266.09 124.82,-265.21 126.02,-264.36"/>
<polygon fill="#63b8ff" stroke="#63b8ff" points="127.78,-267.39 134.5,-259.2 124.14,-261.41 127.78,-267.39"/>
</a>
</g>
</g>
<!-- Node14 -->
<g id="Node000014" class="node">
<title>Node14</title>
<g id="a_Node000014"><a xlink:href="group__ld3320__interface__driver.html#gad2e24d9582bb351a5c67c89fb9357caf" target="_top" xlink:title="interface spi bus deinit">
<polygon fill="white" stroke="#666666" points="242.75,-208 137.5,-208 137.5,-176 242.75,-176 242.75,-208"/>
<text xml:space="preserve" text-anchor="start" x="145.5" y="-194.5" font-family="Helvetica,sans-Serif" font-size="10.00">ld3320_interface_spi</text>
<text xml:space="preserve" text-anchor="middle" x="190.12" y="-182.5" font-family="Helvetica,sans-Serif" font-size="10.00">_deinit</text>
</a>
</g>
</g>
<!-- Node1&#45;&gt;Node14 -->
<g id="edge13_Node000001_Node000014" class="edge">
<title>Node1&#45;&gt;Node14</title>
<g id="a_edge13_Node000001_Node000014"><a xlink:title=" ">
<path fill="none" stroke="#63b8ff" d="M46.19,-375.65C52.16,-346.52 72.97,-262.97 122.5,-217 124.13,-215.49 125.86,-214.06 127.67,-212.72"/>
<polygon fill="#63b8ff" stroke="#63b8ff" points="129.37,-215.79 135.98,-207.51 125.65,-209.86 129.37,-215.79"/>
</a>
</g>
</g>
<!-- Node15 -->
<g id="Node000015" class="node">
<title>Node15</title>
<g id="a_Node000015"><a xlink:href="group__ld3320__interface__driver.html#ga8107b3c05ad58c310a80896bd2876f03" target="_top" xlink:title="interface spi bus init">
<polygon fill="white" stroke="#666666" points="251.75,-158 128.5,-158 128.5,-138 251.75,-138 251.75,-158"/>
<text xml:space="preserve" text-anchor="middle" x="190.12" y="-144.5" font-family="Helvetica,sans-Serif" font-size="10.00">ld3320_interface_spi_init</text>
</a>
</g>
</g>
<!-- Node1&#45;&gt;Node15 -->
<g id="edge14_Node000001_Node000015" class="edge">
<title>Node1&#45;&gt;Node15</title>
<g id="a_edge14_Node000001_Node000015"><a xlink:title=" ">
<path fill="none" stroke="#63b8ff" d="M44.75,-375.51C47.01,-340.48 59.15,-226.34 122.5,-167 123.42,-166.14 124.38,-165.31 125.37,-164.52"/>
<polygon fill="#63b8ff" stroke="#63b8ff" points="127.18,-167.52 133.74,-159.21 123.43,-161.61 127.18,-167.52"/>
</a>
</g>
</g>
<!-- Node16 -->
<g id="Node000016" class="node">
<title>Node16</title>
<g id="a_Node000016"><a xlink:href="group__ld3320__interface__driver.html#gabd24a40f0f9205d605e433e9bb2336eb" target="_top" xlink:title="interface spi bus read">
<polygon fill="white" stroke="#666666" points="242.75,-120 137.5,-120 137.5,-88 242.75,-88 242.75,-120"/>
<text xml:space="preserve" text-anchor="start" x="145.5" y="-106.5" font-family="Helvetica,sans-Serif" font-size="10.00">ld3320_interface_spi</text>
<text xml:space="preserve" text-anchor="middle" x="190.12" y="-94.5" font-family="Helvetica,sans-Serif" font-size="10.00">_read_address16</text>
</a>
</g>
</g>
<!-- Node1&#45;&gt;Node16 -->
<g id="edge15_Node000001_Node000016" class="edge">
<title>Node1&#45;&gt;Node16</title>
<g id="a_edge15_Node000001_Node000016"><a xlink:title=" ">
<path fill="none" stroke="#63b8ff" d="M44.31,-375.59C45.1,-337.38 52.92,-203.14 122.5,-129 124.05,-127.34 125.73,-125.8 127.5,-124.35"/>
<polygon fill="#63b8ff" stroke="#63b8ff" points="129.42,-127.28 135.76,-118.79 125.51,-121.47 129.42,-127.28"/>
</a>
</g>
</g>
<!-- Node17 -->
<g id="Node000017" class="node">
<title>Node17</title>
<g id="a_Node000017"><a xlink:href="group__ld3320__interface__driver.html#ga38b62931962100fc697aea08341d242e" target="_top" xlink:title="interface spi bus write">
<polygon fill="white" stroke="#666666" points="242.75,-70 137.5,-70 137.5,-38 242.75,-38 242.75,-70"/>
<text xml:space="preserve" text-anchor="start" x="145.5" y="-56.5" font-family="Helvetica,sans-Serif" font-size="10.00">ld3320_interface_spi</text>
<text xml:space="preserve" text-anchor="middle" x="190.12" y="-44.5" font-family="Helvetica,sans-Serif" font-size="10.00">_write_cmd</text>
</a>
</g>
</g>
<!-- Node1&#45;&gt;Node17 -->
<g id="edge16_Node000001_Node000017" class="edge">
<title>Node1&#45;&gt;Node17</title>
<g id="a_edge16_Node000001_Node000017"><a xlink:title=" ">
<path fill="none" stroke="#63b8ff" d="M43.7,-375.72C42,-333.28 41.19,-169.73 122.5,-79 124.17,-77.13 126,-75.4 127.95,-73.8"/>
<polygon fill="#63b8ff" stroke="#63b8ff" points="129.57,-76.93 135.89,-68.42 125.64,-71.14 129.57,-76.93"/>
</a>
</g>
</g>
<!-- Node18 -->
<g id="Node000018" class="node">
<title>Node18</title>
<g id="a_Node000018"><a xlink:href="group__ld3320__basic__driver.html#gad388a9808c336d2a1a3bf683d24b26cf" target="_top" xlink:title="set the chip mode">
<polygon fill="white" stroke="#666666" points="236.38,-20 143.88,-20 143.88,0 236.38,0 236.38,-20"/>
<text xml:space="preserve" text-anchor="middle" x="190.12" y="-6.5" font-family="Helvetica,sans-Serif" font-size="10.00">ld3320_set_mode</text>
</a>
</g>
</g>
<!-- Node1&#45;&gt;Node18 -->
<g id="edge17_Node000001_Node000018" class="edge">
<title>Node1&#45;&gt;Node18</title>
<g id="a_edge17_Node000001_Node000018"><a xlink:title=" ">
<path fill="none" stroke="#63b8ff" d="M45.11,-375.67C49.7,-322.65 73.07,-81.59 122.5,-29 125.61,-25.69 129.25,-22.95 133.19,-20.67"/>
<polygon fill="#63b8ff" stroke="#63b8ff" points="134.51,-23.92 142.13,-16.56 131.59,-17.56 134.51,-23.92"/>
</a>
</g>
</g>
</g>
</svg>
