<?xml version="1.0" encoding="UTF-8" standalone="no"?>
<!DOCTYPE svg PUBLIC "-//W3C//DTD SVG 1.1//EN"
 "http://www.w3.org/Graphics/SVG/1.1/DTD/svg11.dtd">
<!-- Generated by graphviz version 13.1.0 (20250701.0955)
 -->
<!-- Title: ld3320_asr_init Pages: 1 -->
<svg width="261pt" height="770pt"
 viewBox="0.00 0.00 261.00 770.00" xmlns="http://www.w3.org/2000/svg" xmlns:xlink="http://www.w3.org/1999/xlink">
<g id="graph0" class="graph" transform="scale(1 1) rotate(0) translate(4 766)">
<title>ld3320_asr_init</title>
<!-- Node1 -->
<g id="Node000001" class="node">
<title>Node1</title>
<g id="a_Node000001"><a xlink:title="asr example init">
<polygon fill="#999999" stroke="#666666" points="81.25,-403 0,-403 0,-383 81.25,-383 81.25,-403"/>
<text xml:space="preserve" text-anchor="middle" x="40.62" y="-389.5" font-family="Helvetica,sans-Serif" font-size="10.00">ld3320_asr_init</text>
</a>
</g>
</g>
<!-- Node2 -->
<g id="Node000002" class="node">
<title>Node2</title>
<g id="a_Node000002"><a xlink:href="group__ld3320__basic__driver.html#ga4debadf343eb46683bd5579d6a662572" target="_top" xlink:title="deinit the chip">
<polygon fill="white" stroke="#666666" points="221.38,-762 148.38,-762 148.38,-742 221.38,-742 221.38,-762"/>
<text xml:space="preserve" text-anchor="middle" x="184.88" y="-748.5" font-family="Helvetica,sans-Serif" font-size="10.00">ld3320_deinit</text>
</a>
</g>
</g>
<!-- Node1&#45;&gt;Node2 -->
<g id="edge1_Node000001_Node000002" class="edge">
<title>Node1&#45;&gt;Node2</title>
<g id="a_edge1_Node000001_Node000002"><a xlink:title=" ">
<path fill="none" stroke="#63b8ff" d="M42.5,-403.18C47.12,-454.35 70.17,-683.06 117.25,-733 122.63,-738.7 129.58,-742.73 136.97,-745.58"/>
<polygon fill="#63b8ff" stroke="#63b8ff" points="135.93,-748.92 146.51,-748.5 137.98,-742.22 135.93,-748.92"/>
</a>
</g>
</g>
<!-- Node3 -->
<g id="Node000003" class="node">
<title>Node3</title>
<g id="a_Node000003"><a xlink:href="group__ld3320__basic__driver.html#ga765da04c865f0549c04452632a2fe1a0" target="_top" xlink:title="initialize the chip">
<polygon fill="white" stroke="#666666" points="216.12,-724 153.62,-724 153.62,-704 216.12,-704 216.12,-724"/>
<text xml:space="preserve" text-anchor="middle" x="184.88" y="-710.5" font-family="Helvetica,sans-Serif" font-size="10.00">ld3320_init</text>
</a>
</g>
</g>
<!-- Node1&#45;&gt;Node3 -->
<g id="edge2_Node000001_Node000003" class="edge">
<title>Node1&#45;&gt;Node3</title>
<g id="a_edge2_Node000001_Node000003"><a xlink:title=" ">
<path fill="none" stroke="#63b8ff" d="M42.82,-403.29C48.59,-451.13 74.96,-651.31 117.25,-695 123.91,-701.88 132.87,-706.32 142.06,-709.17"/>
<polygon fill="#63b8ff" stroke="#63b8ff" points="141.23,-712.57 151.77,-711.55 142.9,-705.77 141.23,-712.57"/>
</a>
</g>
</g>
<!-- Node4 -->
<g id="Node000004" class="node">
<title>Node4</title>
<g id="a_Node000004"><a xlink:href="group__ld3320__interface__driver.html#gafa85984e81420ab0e2defbdcce3ceb1e" target="_top" xlink:title="interface print format data">
<polygon fill="white" stroke="#666666" points="244.25,-686 125.5,-686 125.5,-654 244.25,-654 244.25,-686"/>
<text xml:space="preserve" text-anchor="start" x="133.5" y="-672.5" font-family="Helvetica,sans-Serif" font-size="10.00">ld3320_interface_debug</text>
<text xml:space="preserve" text-anchor="middle" x="184.88" y="-660.5" font-family="Helvetica,sans-Serif" font-size="10.00">_print</text>
</a>
</g>
</g>
<!-- Node1&#45;&gt;Node4 -->
<g id="edge3_Node000001_Node000004" class="edge">
<title>Node1&#45;&gt;Node4</title>
<g id="a_edge3_Node000001_Node000004"><a xlink:title=" ">
<path fill="none" stroke="#63b8ff" d="M41.64,-403.46C42.26,-441.27 49.41,-572.42 117.25,-645 117.72,-645.51 118.21,-646.01 118.71,-646.49"/>
<polygon fill="#63b8ff" stroke="#63b8ff" points="116.37,-649.11 126.38,-652.6 120.73,-643.63 116.37,-649.11"/>
</a>
</g>
</g>
<!-- Node5 -->
<g id="Node000005" class="node">
<title>Node5</title>
<g id="a_Node000005"><a xlink:href="group__ld3320__interface__driver.html#ga3a554b0dadce085a99d4564509ab773e" target="_top" xlink:title="interface delay ms">
<polygon fill="white" stroke="#666666" points="252.12,-636 117.62,-636 117.62,-616 252.12,-616 252.12,-636"/>
<text xml:space="preserve" text-anchor="middle" x="184.88" y="-622.5" font-family="Helvetica,sans-Serif" font-size="10.00">ld3320_interface_delay_ms</text>
</a>
</g>
</g>
<!-- Node1&#45;&gt;Node5 -->
<g id="edge4_Node000001_Node000005" class="edge">
<title>Node1&#45;&gt;Node5</title>
<g id="a_edge4_Node000001_Node000005"><a xlink:title=" ">
<path fill="none" stroke="#63b8ff" d="M42.07,-403.24C44.14,-437.47 55.52,-548.98 117.25,-607 118.17,-607.86 119.13,-608.69 120.12,-609.48"/>
<polygon fill="#63b8ff" stroke="#63b8ff" points="118.17,-612.39 128.48,-614.81 121.93,-606.48 118.17,-612.39"/>
</a>
</g>
</g>
<!-- Node6 -->
<g id="Node000006" class="node">
<title>Node6</title>
<g id="a_Node000006"><a xlink:href="group__ld3320__interface__driver.html#gaf04c51a9bc6ecea9d44b81fa807950cf" target="_top" xlink:title="interface delay us">
<polygon fill="white" stroke="#666666" points="250.62,-598 119.12,-598 119.12,-578 250.62,-578 250.62,-598"/>
<text xml:space="preserve" text-anchor="middle" x="184.88" y="-584.5" font-family="Helvetica,sans-Serif" font-size="10.00">ld3320_interface_delay_us</text>
</a>
</g>
</g>
<!-- Node1&#45;&gt;Node6 -->
<g id="edge5_Node000001_Node000006" class="edge">
<title>Node1&#45;&gt;Node6</title>
<g id="a_edge5_Node000001_Node000006"><a xlink:title=" ">
<path fill="none" stroke="#63b8ff" d="M42.93,-403.11C47.35,-433.14 64.56,-522.66 117.25,-569 118.34,-569.96 119.48,-570.87 120.66,-571.74"/>
<polygon fill="#63b8ff" stroke="#63b8ff" points="118.65,-574.62 129.02,-576.74 122.24,-568.61 118.65,-574.62"/>
</a>
</g>
</g>
<!-- Node7 -->
<g id="Node000007" class="node">
<title>Node7</title>
<g id="a_Node000007"><a xlink:href="group__ld3320__interface__driver.html#gace15c2d4f2c5736816d0ade5e88c6db8" target="_top" xlink:title="interface mp3 deinit">
<polygon fill="white" stroke="#666666" points="240.5,-560 129.25,-560 129.25,-528 240.5,-528 240.5,-560"/>
<text xml:space="preserve" text-anchor="start" x="137.25" y="-546.5" font-family="Helvetica,sans-Serif" font-size="10.00">ld3320_interface_mp3</text>
<text xml:space="preserve" text-anchor="middle" x="184.88" y="-534.5" font-family="Helvetica,sans-Serif" font-size="10.00">_deinit</text>
</a>
</g>
</g>
<!-- Node1&#45;&gt;Node7 -->
<g id="edge6_Node000001_Node000007" class="edge">
<title>Node1&#45;&gt;Node7</title>
<g id="a_edge6_Node000001_Node000007"><a xlink:title=" ">
<path fill="none" stroke="#63b8ff" d="M45.14,-403.4C53.7,-427.22 77.85,-486.18 117.25,-519 118.34,-519.91 119.48,-520.79 120.64,-521.64"/>
<polygon fill="#63b8ff" stroke="#63b8ff" points="118.46,-524.4 128.78,-526.77 122.19,-518.48 118.46,-524.4"/>
</a>
</g>
</g>
<!-- Node8 -->
<g id="Node000008" class="node">
<title>Node8</title>
<g id="a_Node000008"><a xlink:href="group__ld3320__interface__driver.html#gad77a481089ccde5c82ec25651936de32" target="_top" xlink:title="interface mp3 init">
<polygon fill="white" stroke="#666666" points="249.5,-510 120.25,-510 120.25,-490 249.5,-490 249.5,-510"/>
<text xml:space="preserve" text-anchor="middle" x="184.88" y="-496.5" font-family="Helvetica,sans-Serif" font-size="10.00">ld3320_interface_mp3_init</text>
</a>
</g>
</g>
<!-- Node1&#45;&gt;Node8 -->
<g id="edge7_Node000001_Node000008" class="edge">
<title>Node1&#45;&gt;Node8</title>
<g id="a_edge7_Node000001_Node000008"><a xlink:title=" ">
<path fill="none" stroke="#63b8ff" d="M47.68,-403.42C58.97,-421.89 85.01,-460.37 117.25,-481 119.52,-482.45 121.89,-483.79 124.35,-485.03"/>
<polygon fill="#63b8ff" stroke="#63b8ff" points="122.81,-488.18 133.38,-488.98 125.62,-481.77 122.81,-488.18"/>
</a>
</g>
</g>
<!-- Node9 -->
<g id="Node000009" class="node">
<title>Node9</title>
<g id="a_Node000009"><a xlink:href="group__ld3320__interface__driver.html#ga1209646409d8ab2212dcb5c6a6bea841" target="_top" xlink:title="interface mp3 read">
<polygon fill="white" stroke="#666666" points="252.5,-472 117.25,-472 117.25,-452 252.5,-452 252.5,-472"/>
<text xml:space="preserve" text-anchor="middle" x="184.88" y="-458.5" font-family="Helvetica,sans-Serif" font-size="10.00">ld3320_interface_mp3_read</text>
</a>
</g>
</g>
<!-- Node1&#45;&gt;Node9 -->
<g id="edge8_Node000001_Node000009" class="edge">
<title>Node1&#45;&gt;Node9</title>
<g id="a_edge8_Node000001_Node000009"><a xlink:title=" ">
<path fill="none" stroke="#63b8ff" d="M54.55,-403.35C69.06,-414.52 93.65,-432.15 117.25,-443 121.02,-444.74 124.99,-446.35 129.03,-447.84"/>
<polygon fill="#63b8ff" stroke="#63b8ff" points="127.79,-451.11 138.38,-451.02 130.04,-444.49 127.79,-451.11"/>
</a>
</g>
</g>
<!-- Node10 -->
<g id="Node000010" class="node">
<title>Node10</title>
<g id="a_Node000010"><a xlink:href="group__ld3320__interface__driver.html#ga5c2edbb7ff33929bdb0f67cc1839eabd" target="_top" xlink:title="interface reset gpio deinit">
<polygon fill="white" stroke="#666666" points="242,-434 127.75,-434 127.75,-402 242,-402 242,-434"/>
<text xml:space="preserve" text-anchor="start" x="135.75" y="-420.5" font-family="Helvetica,sans-Serif" font-size="10.00">ld3320_interface_reset</text>
<text xml:space="preserve" text-anchor="middle" x="184.88" y="-408.5" font-family="Helvetica,sans-Serif" font-size="10.00">_gpio_deinit</text>
</a>
</g>
</g>
<!-- Node1&#45;&gt;Node10 -->
<g id="edge9_Node000001_Node000010" class="edge">
<title>Node1&#45;&gt;Node10</title>
<g id="a_edge9_Node000001_Node000010"><a xlink:title=" ">
<path fill="none" stroke="#63b8ff" d="M81.63,-400.03C92.4,-401.92 104.36,-404.03 116.19,-406.11"/>
<polygon fill="#63b8ff" stroke="#63b8ff" points="115.51,-409.54 125.97,-407.82 116.72,-402.64 115.51,-409.54"/>
</a>
</g>
</g>
<!-- Node11 -->
<g id="Node000011" class="node">
<title>Node11</title>
<g id="a_Node000011"><a xlink:href="group__ld3320__interface__driver.html#ga2d67877a3e1f2996404c76af734f4a40" target="_top" xlink:title="interface reset gpio init">
<polygon fill="white" stroke="#666666" points="242,-384 127.75,-384 127.75,-352 242,-352 242,-384"/>
<text xml:space="preserve" text-anchor="start" x="135.75" y="-370.5" font-family="Helvetica,sans-Serif" font-size="10.00">ld3320_interface_reset</text>
<text xml:space="preserve" text-anchor="middle" x="184.88" y="-358.5" font-family="Helvetica,sans-Serif" font-size="10.00">_gpio_init</text>
</a>
</g>
</g>
<!-- Node1&#45;&gt;Node11 -->
<g id="edge10_Node000001_Node000011" class="edge">
<title>Node1&#45;&gt;Node11</title>
<g id="a_edge10_Node000001_Node000011"><a xlink:title=" ">
<path fill="none" stroke="#63b8ff" d="M81.63,-385.97C92.4,-384.08 104.36,-381.97 116.19,-379.89"/>
<polygon fill="#63b8ff" stroke="#63b8ff" points="116.72,-383.36 125.97,-378.18 115.51,-376.46 116.72,-383.36"/>
</a>
</g>
</g>
<!-- Node12 -->
<g id="Node000012" class="node">
<title>Node12</title>
<g id="a_Node000012"><a xlink:href="group__ld3320__interface__driver.html#gab5c412c83d92563eb3a6caffec7b4b5a" target="_top" xlink:title="interface reset gpio write">
<polygon fill="white" stroke="#666666" points="242,-334 127.75,-334 127.75,-302 242,-302 242,-334"/>
<text xml:space="preserve" text-anchor="start" x="135.75" y="-320.5" font-family="Helvetica,sans-Serif" font-size="10.00">ld3320_interface_reset</text>
<text xml:space="preserve" text-anchor="middle" x="184.88" y="-308.5" font-family="Helvetica,sans-Serif" font-size="10.00">_gpio_write</text>
</a>
</g>
</g>
<!-- Node1&#45;&gt;Node12 -->
<g id="edge11_Node000001_Node000012" class="edge">
<title>Node1&#45;&gt;Node12</title>
<g id="a_edge11_Node000001_Node000012"><a xlink:title=" ">
<path fill="none" stroke="#63b8ff" d="M55.27,-382.61C69.99,-371.74 94.39,-354.66 117.25,-343 119.94,-341.63 122.73,-340.29 125.57,-338.99"/>
<polygon fill="#63b8ff" stroke="#63b8ff" points="126.82,-342.26 134.6,-335.07 124.04,-335.84 126.82,-342.26"/>
</a>
</g>
</g>
<!-- Node13 -->
<g id="Node000013" class="node">
<title>Node13</title>
<g id="a_Node000013"><a xlink:href="group__ld3320__interface__driver.html#gad2e24d9582bb351a5c67c89fb9357caf" target="_top" xlink:title="interface spi bus deinit">
<polygon fill="white" stroke="#666666" points="237.5,-284 132.25,-284 132.25,-252 237.5,-252 237.5,-284"/>
<text xml:space="preserve" text-anchor="start" x="140.25" y="-270.5" font-family="Helvetica,sans-Serif" font-size="10.00">ld3320_interface_spi</text>
<text xml:space="preserve" text-anchor="middle" x="184.88" y="-258.5" font-family="Helvetica,sans-Serif" font-size="10.00">_deinit</text>
</a>
</g>
</g>
<!-- Node1&#45;&gt;Node13 -->
<g id="edge12_Node000001_Node000013" class="edge">
<title>Node1&#45;&gt;Node13</title>
<g id="a_edge12_Node000001_Node000013"><a xlink:title=" ">
<path fill="none" stroke="#63b8ff" d="M46.83,-382.69C57.43,-362.66 83.41,-318.26 117.25,-293 118.78,-291.86 120.37,-290.76 122.01,-289.71"/>
<polygon fill="#63b8ff" stroke="#63b8ff" points="123.49,-292.89 130.47,-284.92 120.04,-286.8 123.49,-292.89"/>
</a>
</g>
</g>
<!-- Node14 -->
<g id="Node000014" class="node">
<title>Node14</title>
<g id="a_Node000014"><a xlink:href="group__ld3320__interface__driver.html#ga8107b3c05ad58c310a80896bd2876f03" target="_top" xlink:title="interface spi bus init">
<polygon fill="white" stroke="#666666" points="246.5,-234 123.25,-234 123.25,-214 246.5,-214 246.5,-234"/>
<text xml:space="preserve" text-anchor="middle" x="184.88" y="-220.5" font-family="Helvetica,sans-Serif" font-size="10.00">ld3320_interface_spi_init</text>
</a>
</g>
</g>
<!-- Node1&#45;&gt;Node14 -->
<g id="edge13_Node000001_Node000014" class="edge">
<title>Node1&#45;&gt;Node14</title>
<g id="a_edge13_Node000001_Node000014"><a xlink:title=" ">
<path fill="none" stroke="#63b8ff" d="M43.76,-382.85C49.99,-355.8 70.72,-281.47 117.25,-243 118.55,-241.92 119.92,-240.91 121.32,-239.95"/>
<polygon fill="#63b8ff" stroke="#63b8ff" points="122.87,-243.09 129.88,-235.16 119.45,-236.99 122.87,-243.09"/>
</a>
</g>
</g>
<!-- Node15 -->
<g id="Node000015" class="node">
<title>Node15</title>
<g id="a_Node000015"><a xlink:href="group__ld3320__interface__driver.html#gabd24a40f0f9205d605e433e9bb2336eb" target="_top" xlink:title="interface spi bus read">
<polygon fill="white" stroke="#666666" points="237.5,-196 132.25,-196 132.25,-164 237.5,-164 237.5,-196"/>
<text xml:space="preserve" text-anchor="start" x="140.25" y="-182.5" font-family="Helvetica,sans-Serif" font-size="10.00">ld3320_interface_spi</text>
<text xml:space="preserve" text-anchor="middle" x="184.88" y="-170.5" font-family="Helvetica,sans-Serif" font-size="10.00">_read_address16</text>
</a>
</g>
</g>
<!-- Node1&#45;&gt;Node15 -->
<g id="edge14_Node000001_Node000015" class="edge">
<title>Node1&#45;&gt;Node15</title>
<g id="a_edge14_Node000001_Node000015"><a xlink:title=" ">
<path fill="none" stroke="#63b8ff" d="M42.83,-382.87C47.05,-351.84 63.9,-257.12 117.25,-205 118.84,-203.45 120.54,-201.99 122.32,-200.62"/>
<polygon fill="#63b8ff" stroke="#63b8ff" points="124.03,-203.68 130.53,-195.31 120.23,-197.8 124.03,-203.68"/>
</a>
</g>
</g>
<!-- Node16 -->
<g id="Node000016" class="node">
<title>Node16</title>
<g id="a_Node000016"><a xlink:href="group__ld3320__interface__driver.html#ga38b62931962100fc697aea08341d242e" target="_top" xlink:title="interface spi bus write">
<polygon fill="white" stroke="#666666" points="237.5,-146 132.25,-146 132.25,-114 237.5,-114 237.5,-146"/>
<text xml:space="preserve" text-anchor="start" x="140.25" y="-132.5" font-family="Helvetica,sans-Serif" font-size="10.00">ld3320_interface_spi</text>
<text xml:space="preserve" text-anchor="middle" x="184.88" y="-120.5" font-family="Helvetica,sans-Serif" font-size="10.00">_write_cmd</text>
</a>
</g>
</g>
<!-- Node1&#45;&gt;Node16 -->
<g id="edge15_Node000001_Node000016" class="edge">
<title>Node1&#45;&gt;Node16</title>
<g id="a_edge15_Node000001_Node000016"><a xlink:title=" ">
<path fill="none" stroke="#63b8ff" d="M41.84,-382.86C43.17,-346.79 52.45,-223.21 117.25,-155 118.81,-153.35 120.5,-151.82 122.27,-150.38"/>
<polygon fill="#63b8ff" stroke="#63b8ff" points="124.19,-153.3 130.56,-144.84 120.3,-147.49 124.19,-153.3"/>
</a>
</g>
</g>
<!-- Node17 -->
<g id="Node000017" class="node">
<title>Node17</title>
<g id="a_Node000017"><a xlink:href="group__ld3320__basic__driver.html#gad7c632caadac9ca0bcf991857f574740" target="_top" xlink:title="set the microphone gain">
<polygon fill="white" stroke="#666666" points="238.62,-96 131.12,-96 131.12,-76 238.62,-76 238.62,-96"/>
<text xml:space="preserve" text-anchor="middle" x="184.88" y="-82.5" font-family="Helvetica,sans-Serif" font-size="10.00">ld3320_set_mic_gain</text>
</a>
</g>
</g>
<!-- Node1&#45;&gt;Node17 -->
<g id="edge16_Node000001_Node000017" class="edge">
<title>Node1&#45;&gt;Node17</title>
<g id="a_edge16_Node000001_Node000017"><a xlink:title=" ">
<path fill="none" stroke="#63b8ff" d="M42.98,-382.56C49.22,-335.84 76.74,-146.37 117.25,-105 118.46,-103.76 119.74,-102.61 121.09,-101.53"/>
<polygon fill="#63b8ff" stroke="#63b8ff" points="122.9,-104.52 129.47,-96.21 119.15,-98.61 122.9,-104.52"/>
</a>
</g>
</g>
<!-- Node18 -->
<g id="Node000018" class="node">
<title>Node18</title>
<g id="a_Node000018"><a xlink:href="group__ld3320__basic__driver.html#gad388a9808c336d2a1a3bf683d24b26cf" target="_top" xlink:title="set the chip mode">
<polygon fill="white" stroke="#666666" points="231.12,-58 138.62,-58 138.62,-38 231.12,-38 231.12,-58"/>
<text xml:space="preserve" text-anchor="middle" x="184.88" y="-44.5" font-family="Helvetica,sans-Serif" font-size="10.00">ld3320_set_mode</text>
</a>
</g>
</g>
<!-- Node1&#45;&gt;Node18 -->
<g id="edge17_Node000001_Node000018" class="edge">
<title>Node1&#45;&gt;Node18</title>
<g id="a_edge17_Node000001_Node000018"><a xlink:title=" ">
<path fill="none" stroke="#63b8ff" d="M42.63,-382.58C47.71,-332.22 72,-114.57 117.25,-67 120.38,-63.71 124.03,-60.98 127.99,-58.71"/>
<polygon fill="#63b8ff" stroke="#63b8ff" points="129.31,-61.96 136.94,-54.61 126.39,-55.59 129.31,-61.96"/>
</a>
</g>
</g>
<!-- Node19 -->
<g id="Node000019" class="node">
<title>Node19</title>
<g id="a_Node000019"><a xlink:href="group__ld3320__basic__driver.html#ga40c160bb296e192d888d813c18252041" target="_top" xlink:title="set the vad">
<polygon fill="white" stroke="#666666" points="227,-20 142.75,-20 142.75,0 227,0 227,-20"/>
<text xml:space="preserve" text-anchor="middle" x="184.88" y="-6.5" font-family="Helvetica,sans-Serif" font-size="10.00">ld3320_set_vad</text>
</a>
</g>
</g>
<!-- Node1&#45;&gt;Node19 -->
<g id="edge18_Node000001_Node000019" class="edge">
<title>Node1&#45;&gt;Node19</title>
<g id="a_edge18_Node000001_Node000019"><a xlink:title=" ">
<path fill="none" stroke="#63b8ff" d="M42.34,-382.82C46.3,-329.52 67.15,-82.89 117.25,-29 121.29,-24.65 126.25,-21.27 131.63,-18.65"/>
<polygon fill="#63b8ff" stroke="#63b8ff" points="132.87,-21.92 140.93,-15.04 130.34,-15.4 132.87,-21.92"/>
</a>
</g>
</g>
</g>
</svg>
